<?xml version="1.0" encoding="utf-8"?>
<!-- Generator: Adobe Illustrator 16.0.0, SVG Export Plug-In . SVG Version: 6.00 Build 0)  -->
<!DOCTYPE svg PUBLIC "-//W3C//DTD SVG 1.1//EN" "http://www.w3.org/Graphics/SVG/1.1/DTD/svg11.dtd">
<svg version="1.1" id="Layer_1" xmlns="http://www.w3.org/2000/svg" xmlns:xlink="http://www.w3.org/1999/xlink" x="0px" y="0px"
	 width="595.281px" height="841.891px" viewBox="0 0 595.281 841.891" enable-background="new 0 0 595.281 841.891"
	 xml:space="preserve">
<g>
	<g>
		<path d="M157.211,368.615c5.08,0,9.271,1.524,11.554,2.793l3.811-10.666c-2.793-1.651-8.128-3.175-14.601-3.175
			c-14.604,0-25.017,8.381-25.017,20.317c0,7.11,5.079,12.444,12.191,16.126c6.095,3.174,8.125,5.587,8.125,9.523
			c0,4.063-3.556,7.492-9.523,7.618c-5.586,0-11.682-2.412-14.856-4.19l-3.81,10.667c3.302,2.412,10.032,4.444,17.269,4.444
			c14.858,0,26.286-7.492,26.286-21.079c0-7.872-6.096-12.951-12.826-16.634c-5.204-2.667-8-5.079-8-8.508
			C147.813,371.663,151.624,368.615,157.211,368.615z M251.937,357.568c-8.506,0.127-16.38,4.189-21.84,12.698
			c-0.509-6.603-4.952-12.698-14.604-12.698c-8,0-15.619,3.937-21.46,12.19h-0.126l1.27-10.794h-12.826
			c-0.634,5.333-1.652,11.809-3.047,19.174l-7.874,42.666h14.352l5.33-29.333c2.287-12.571,10.16-21.84,17.017-21.84
			c5.969,0,7.365,4.19,7.365,8.889c0,2.286-0.252,4.697-0.761,7.237l-6.604,35.046h14.221l5.589-29.587
			c2.411-13.079,9.904-21.585,16.634-21.585c5.46,0,7.619,3.555,7.619,8.761c0,2.539-0.509,5.333-0.889,7.873l-6.476,34.539h14.347
			l6.858-36.189c0.506-3.301,1.015-7.873,1.015-10.539C267.046,363.029,260.445,357.568,251.937,357.568z M274.92,377.885
			c0,7.11,5.078,12.444,12.188,16.126c6.095,3.174,8.128,5.587,8.128,9.523c0,4.063-3.556,7.492-9.526,7.618
			c-5.586,0-11.682-2.412-14.855-4.19l-3.809,10.667c3.3,2.412,10.03,4.444,17.269,4.444c14.855,0,26.286-7.492,26.286-21.079
			c0-7.872-6.096-12.951-12.826-16.634c-5.207-2.667-8-5.079-8-8.508c0-4.19,3.809-7.238,9.395-7.238
			c5.083,0,9.27,1.524,11.557,2.793l3.809-10.666c-2.791-1.651-8.126-3.175-14.602-3.175
			C285.333,357.568,274.92,365.949,274.92,377.885z M355.294,357.948c-8.252,0-16.126,4.318-21.586,12.571h-0.252l8.125-39.872
			h-10.538l-13.334,66.158c-0.509,2.92-1.018,6.603-1.018,9.523c0,11.429,8.13,15.873,18.921,15.873
			c24.633,0,38.224-23.364,38.224-42.157C373.836,369.123,368.754,357.948,355.294,357.948z M337.39,413.948
			c-6.604,0-9.903-3.302-9.903-9.143c-0.126-3.175,0.252-5.714,0.761-7.746l1.396-6.476c3.048-14.475,12.447-23.872,21.591-23.872
			c8.377,0,11.682,7.111,11.682,14.73C362.916,395.027,353.264,413.948,337.39,413.948z M418.147,390.837
			c-2.539,13.587-12.316,22.476-19.934,22.476c-7.238,0-9.903-4.318-9.903-10.667c0-2.667,0.378-5.588,1.144-9.016l6.473-34.284
			h-10.538l-6.604,34.792c-0.761,4.064-1.144,7.366-1.144,10.287c0,13.968,8.257,17.777,16.13,17.777
			c8.126,0,16.252-4.952,21.712-12.952h0.257l-1.652,11.555h9.521c0.635-5.079,1.526-11.047,2.796-17.904l8.251-43.554h-10.538
			L418.147,390.837z M527.602,374.076c0-11.556-7.742-16.128-14.855-16.128c-9.269,0.127-17.143,4.826-22.603,13.715
			c-0.509-7.747-4.952-13.715-14.348-13.715c-8.125,0-15.873,4.446-21.586,12.953h-0.383l1.652-11.555h-9.269
			c-0.635,5.079-1.526,11.047-2.796,17.903l-8.252,43.555h10.282l5.717-30.856c2.413-13.079,11.935-23.237,19.682-23.237
			c7.743,0,9.144,5.333,9.144,10.539c0,2.413-0.257,4.826-0.766,7.492l-6.855,36.062h10.16l5.969-31.491
			c2.539-13.714,11.552-22.603,19.173-22.603c6.856,0,9.27,4.19,9.27,10.666c0,2.54-0.383,5.714-0.887,8l-6.604,35.428h10.287
			l6.855-36.317C527.224,381.059,527.602,376.996,527.602,374.076z M571.917,357.948c-8.378,0-16.508,4.953-22.095,12.953h-0.252
			l1.778-11.555h-9.651c-0.887,6.222-2.156,14.476-3.431,21.84l-12.316,64.761h10.412l4.952-26.54h0.257
			c2.412,1.397,6.729,2.794,13.334,2.794c20.442,0,35.933-20.444,35.933-42.031C590.838,368.869,585.251,357.948,571.917,357.948z
			 M554.906,413.948c-4.952,0-9.018-1.271-11.683-3.429l3.048-17.142c3.174-17.143,13.586-26.666,21.838-26.666
			c8.892,0,11.809,7.746,11.809,14.221C579.917,397.058,568.492,413.948,554.906,413.948z"/>
	</g>
</g>
<g>
	<g>
		<path fill="#AAAAAA" d="M28.152,488.403v-0.183c0.861-0.216,1.614-0.554,2.259-1.015c0.646-0.462,1.168-0.984,1.567-1.567
			c0.399-0.585,0.699-1.215,0.899-1.891c0.199-0.675,0.299-1.353,0.299-2.027c0-1.445-0.285-2.643-0.853-3.598
			c-0.568-0.951-1.353-1.719-2.351-2.305c-0.999-0.583-2.167-0.99-3.503-1.22c-1.337-0.231-2.789-0.347-4.355-0.347H11.833v30.056
			h11.156c1.628,0,3.15-0.176,4.563-0.528c1.414-0.354,2.65-0.892,3.711-1.614c1.06-0.723,1.89-1.637,2.489-2.744
			c0.599-1.104,0.899-2.426,0.899-3.964c0-2.027-0.546-3.61-1.637-4.749C31.924,489.571,30.302,488.803,28.152,488.403z
			 M18.61,479.508h3.227c1.597,0,2.781,0.245,3.55,0.736c0.767,0.492,1.152,1.308,1.152,2.444s-0.377,2.037-1.13,2.696
			c-0.753,0.662-1.959,0.99-3.619,0.99h-3.18V479.508z M22.436,499.052H18.61v-7.882h3.825c1.875,0,3.273,0.299,4.196,0.9
			c0.921,0.599,1.382,1.56,1.382,2.881C28.013,497.685,26.154,499.052,22.436,499.052z M64.016,491.077
			c0,2.951-0.46,5.011-1.383,6.179c-0.922,1.168-2.229,1.751-3.917,1.751c-1.69,0-2.981-0.583-3.873-1.751
			c-0.891-1.168-1.337-3.228-1.337-6.179v-16.825h-6.822v16.135c0,5.039,1.03,8.713,3.089,11.018
			c2.058,2.305,5.039,3.457,8.943,3.457c3.871,0,6.814-1.152,8.828-3.457c2.012-2.305,3.019-5.979,3.019-11.018v-16.135h-6.545
			V491.077z M91.443,474.252h-6.775v30.056h18.669v-5.715H91.443V474.252z M139.062,474.252h-7.468l-8.943,12.308h-0.182v-12.308
			h-6.78v30.056h6.78v-8.067l3.502-4.609l7.329,12.677h7.423l-10.741-18.069L139.062,474.252z M182.441,487.39l-3.872-1.566
			c-0.648-0.277-1.247-0.531-1.801-0.762c-0.551-0.231-1.035-0.477-1.45-0.738c-0.416-0.261-0.738-0.554-0.968-0.875
			c-0.231-0.324-0.347-0.716-0.347-1.175c0-0.862,0.347-1.531,1.036-2.006c0.693-0.478,1.621-0.716,2.791-0.716
			c1.197,0,2.287,0.207,3.273,0.623c0.981,0.415,1.967,1.007,2.948,1.774l3.458-4.286c-1.29-1.292-2.787-2.275-4.493-2.95
			c-1.706-0.676-3.435-1.016-5.186-1.016c-1.566,0-3.005,0.231-4.312,0.693c-1.306,0.459-2.436,1.099-3.385,1.911
			c-0.955,0.814-1.693,1.769-2.215,2.858c-0.522,1.092-0.784,2.251-0.784,3.479c0,1.107,0.169,2.098,0.509,2.974
			c0.338,0.878,0.79,1.646,1.36,2.305c0.567,0.662,1.213,1.238,1.936,1.729c0.72,0.492,1.467,0.891,2.235,1.199l3.919,1.659
			c0.644,0.276,1.238,0.531,1.774,0.761c0.538,0.229,0.999,0.477,1.384,0.738c0.385,0.261,0.676,0.561,0.876,0.897
			c0.198,0.338,0.299,0.738,0.299,1.2c0,0.892-0.344,1.598-1.038,2.12c-0.691,0.522-1.742,0.783-3.156,0.783
			c-1.261,0-2.543-0.292-3.849-0.875c-1.308-0.586-2.499-1.337-3.574-2.261l-3.872,4.657c1.535,1.445,3.279,2.528,5.231,3.251
			c1.952,0.72,3.912,1.082,5.879,1.082c1.78,0,3.378-0.254,4.794-0.761c1.413-0.506,2.602-1.184,3.57-2.028
			c0.968-0.846,1.706-1.827,2.215-2.95c0.506-1.121,0.761-2.312,0.761-3.572c0-2.12-0.531-3.826-1.591-5.116
			C185.736,489.141,184.284,488.129,182.441,487.39z M216.645,487.76l-1.798,5.253h-0.185l-1.798-5.253l-5.024-13.508h-7.191v30.056
			h6.224V493.29c0-0.736-0.031-1.551-0.092-2.442c-0.061-0.892-0.13-1.789-0.207-2.696c-0.079-0.907-0.162-1.799-0.254-2.675
			c-0.09-0.875-0.185-1.684-0.274-2.419h0.185l2.395,6.96l4.61,11.663h2.719l4.61-11.663l2.49-6.96h0.185
			c-0.09,0.735-0.185,1.544-0.275,2.419c-0.094,0.876-0.185,1.768-0.279,2.675c-0.09,0.907-0.167,1.805-0.23,2.696
			c-0.061,0.892-0.09,1.706-0.09,2.442v11.018h6.313v-30.056h-7.146L216.645,487.76z M257.487,487.39l-3.874-1.566
			c-0.644-0.277-1.243-0.531-1.796-0.762c-0.554-0.231-1.038-0.477-1.454-0.738c-0.414-0.261-0.736-0.554-0.968-0.875
			c-0.229-0.324-0.344-0.716-0.344-1.175c0-0.862,0.344-1.531,1.038-2.006c0.691-0.478,1.621-0.716,2.789-0.716
			c1.2,0,2.289,0.207,3.272,0.623c0.984,0.415,1.965,1.007,2.951,1.774l3.457-4.286c-1.292-1.292-2.791-2.275-4.495-2.95
			c-1.706-0.676-3.435-1.016-5.186-1.016c-1.569,0-3.005,0.231-4.311,0.693c-1.306,0.459-2.436,1.099-3.39,1.911
			c-0.95,0.814-1.688,1.769-2.21,2.858c-0.522,1.092-0.784,2.251-0.784,3.479c0,1.107,0.167,2.098,0.507,2.974
			c0.337,0.878,0.79,1.646,1.359,2.305c0.569,0.662,1.213,1.238,1.936,1.729c0.723,0.492,1.468,0.891,2.235,1.199l3.919,1.659
			c0.646,0.276,1.235,0.531,1.776,0.761c0.536,0.229,0.997,0.477,1.382,0.738c0.383,0.261,0.675,0.561,0.875,0.897
			c0.201,0.338,0.299,0.738,0.299,1.2c0,0.892-0.346,1.598-1.035,2.12c-0.693,0.522-1.747,0.783-3.16,0.783
			c-1.261,0-2.542-0.292-3.849-0.875c-1.306-0.586-2.496-1.337-3.57-2.261l-3.874,4.657c1.537,1.445,3.279,2.528,5.233,3.251
			c1.949,0.72,3.91,1.082,5.875,1.082c1.783,0,3.381-0.254,4.794-0.761c1.414-0.506,2.606-1.184,3.574-2.028
			c0.968-0.846,1.706-1.827,2.212-2.95c0.507-1.121,0.761-2.312,0.761-3.572c0-2.12-0.529-3.826-1.592-5.116
			C260.782,489.141,259.331,488.129,257.487,487.39z M308.426,487.76l-1.801,5.253h-0.185l-1.796-5.253l-5.024-13.508h-7.193v30.056
			h6.226V493.29c0-0.736-0.031-1.551-0.094-2.442c-0.062-0.892-0.131-1.789-0.208-2.696c-0.076-0.907-0.161-1.799-0.251-2.675
			c-0.095-0.875-0.185-1.684-0.277-2.419h0.182l2.4,6.96l4.609,11.663h2.719l4.61-11.663l2.489-6.96h0.185
			c-0.095,0.735-0.185,1.544-0.279,2.419c-0.09,0.876-0.18,1.768-0.274,2.675c-0.09,0.907-0.171,1.805-0.229,2.696
			c-0.063,0.892-0.095,1.706-0.095,2.442v11.018h6.315v-30.056h-7.144L308.426,487.76z M341.478,491.677h10.232v-5.672h-10.232
			v-6.037h12.029v-5.717h-18.809v30.056h19.271v-5.715h-12.492V491.677z M381.674,487.39l-3.872-1.566
			c-0.647-0.277-1.246-0.531-1.8-0.762c-0.554-0.231-1.036-0.477-1.45-0.738c-0.414-0.261-0.738-0.554-0.968-0.875
			c-0.234-0.324-0.347-0.716-0.347-1.175c0-0.862,0.347-1.531,1.035-2.006c0.693-0.478,1.621-0.716,2.791-0.716
			c1.198,0,2.287,0.207,3.273,0.623c0.981,0.415,1.967,1.007,2.948,1.774l3.458-4.286c-1.293-1.292-2.787-2.275-4.493-2.95
			c-1.706-0.676-3.435-1.016-5.187-1.016c-1.566,0-3.007,0.231-4.312,0.693c-1.306,0.459-2.436,1.099-3.385,1.911
			c-0.955,0.814-1.693,1.769-2.215,2.858c-0.522,1.092-0.783,2.251-0.783,3.479c0,1.107,0.171,2.098,0.509,2.974
			c0.337,0.878,0.787,1.646,1.359,2.305c0.567,0.662,1.211,1.238,1.936,1.729c0.72,0.492,1.468,0.891,2.237,1.199l3.916,1.659
			c0.645,0.276,1.238,0.531,1.774,0.761c0.54,0.229,0.999,0.477,1.382,0.738c0.387,0.261,0.675,0.561,0.878,0.897
			c0.198,0.338,0.297,0.738,0.297,1.2c0,0.892-0.342,1.598-1.035,2.12s-1.742,0.783-3.156,0.783c-1.26,0-2.543-0.292-3.849-0.875
			c-1.31-0.586-2.498-1.337-3.574-2.261l-3.872,4.657c1.535,1.445,3.277,2.528,5.231,3.251c1.954,0.72,3.912,1.082,5.879,1.082
			c1.783,0,3.381-0.254,4.795-0.761c1.413-0.506,2.602-1.184,3.569-2.028c0.968-0.846,1.706-1.827,2.215-2.95
			c0.505-1.121,0.761-2.312,0.761-3.572c0-2.12-0.531-3.826-1.594-5.116C384.969,489.141,383.515,488.129,381.674,487.39z
			 M413.619,487.39l-3.872-1.566c-0.644-0.277-1.242-0.531-1.796-0.762c-0.554-0.231-1.04-0.477-1.454-0.738
			c-0.414-0.261-0.738-0.554-0.968-0.875c-0.229-0.324-0.347-0.716-0.347-1.175c0-0.862,0.347-1.531,1.04-2.006
			c0.688-0.478,1.621-0.716,2.786-0.716c1.198,0,2.292,0.207,3.273,0.623c0.985,0.415,1.967,1.007,2.953,1.774l3.457-4.286
			c-1.292-1.292-2.791-2.275-4.497-2.95c-1.706-0.676-3.435-1.016-5.187-1.016c-1.566,0-3.002,0.231-4.308,0.693
			c-1.311,0.459-2.436,1.099-3.39,1.911c-0.955,0.814-1.688,1.769-2.211,2.858c-0.526,1.092-0.787,2.251-0.787,3.479
			c0,1.107,0.171,2.098,0.509,2.974c0.337,0.878,0.792,1.646,1.359,2.305c0.566,0.662,1.215,1.238,1.936,1.729
			c0.725,0.492,1.468,0.891,2.237,1.199l3.916,1.659c0.648,0.276,1.238,0.531,1.778,0.761c0.536,0.229,0.995,0.477,1.383,0.738
			c0.382,0.261,0.675,0.561,0.873,0.897c0.202,0.338,0.302,0.738,0.302,1.2c0,0.892-0.347,1.598-1.04,2.12
			c-0.689,0.522-1.742,0.783-3.156,0.783c-1.26,0-2.543-0.292-3.849-0.875c-1.306-0.586-2.498-1.337-3.574-2.261l-3.872,4.657
			c1.54,1.445,3.282,2.528,5.231,3.251c1.954,0.72,3.912,1.082,5.879,1.082c1.783,0,3.381-0.254,4.795-0.761
			c1.413-0.506,2.606-1.184,3.574-2.028c0.968-0.846,1.706-1.827,2.21-2.95c0.509-1.121,0.761-2.312,0.761-3.572
			c0-2.12-0.531-3.826-1.589-5.116C416.914,489.141,415.464,488.129,413.619,487.39z M437.406,474.252l-9.404,30.056h6.915
			l1.846-7.144h9.17l1.846,7.144h7.189l-9.404-30.056H437.406z M438.144,491.86l0.738-2.764c0.428-1.506,0.837-3.098,1.22-4.772
			c0.383-1.674,0.761-3.311,1.13-4.909h0.185c0.401,1.567,0.797,3.196,1.197,4.887c0.401,1.69,0.815,3.289,1.247,4.795l0.689,2.764
			H438.144z M477.142,492.921h4.979v5.163c-0.369,0.309-0.847,0.538-1.432,0.691c-0.581,0.155-1.18,0.231-1.796,0.231
			c-2.827,0-4.938-0.853-6.339-2.559c-1.4-1.707-2.098-4.11-2.098-7.215c0-1.506,0.193-2.858,0.576-4.056
			c0.383-1.199,0.932-2.213,1.639-3.043c0.707-0.828,1.544-1.468,2.512-1.913c0.968-0.446,2.035-0.669,3.201-0.669
			c1.292,0,2.345,0.2,3.16,0.601c0.814,0.398,1.589,0.952,2.327,1.659l3.732-4.195c-0.981-1.013-2.251-1.92-3.8-2.719
			c-1.553-0.8-3.39-1.2-5.51-1.2c-2.03,0-3.944,0.354-5.74,1.061c-1.796,0.709-3.362,1.737-4.7,3.09
			c-1.337,1.351-2.399,3.003-3.183,4.954c-0.783,1.952-1.175,4.174-1.175,6.66c0,2.521,0.374,4.743,1.13,6.663
			c0.752,1.92,1.787,3.527,3.111,4.816c1.318,1.29,2.862,2.267,4.632,2.927c1.77,0.661,3.664,0.992,5.694,0.992
			c2.121,0,4.057-0.354,5.808-1.06c1.751-0.707,3.165-1.569,4.24-2.582V487.39h-10.971V492.921z M501.484,504.307h6.774v-30.056
			h-6.774V504.307z M539.604,484.853c0,1.783,0.1,3.658,0.302,5.625c0.198,1.967,0.374,3.75,0.526,5.348h-0.185l-2.948-6.638
			l-7.838-14.937h-6.959v30.056h6.455v-10.648c0-1.783-0.104-3.626-0.302-5.53c-0.202-1.907-0.378-3.689-0.531-5.349h0.185
			l2.953,6.546l7.833,14.981h6.965v-30.056h-6.456V484.853z M572.516,487.39v5.53h4.979v5.163c-0.369,0.309-0.847,0.538-1.428,0.691
			c-0.585,0.155-1.184,0.231-1.801,0.231c-2.826,0-4.938-0.853-6.338-2.559c-1.396-1.707-2.098-4.11-2.098-7.215
			c0-1.506,0.193-2.858,0.576-4.056c0.387-1.199,0.932-2.213,1.639-3.043c0.706-0.828,1.544-1.468,2.512-1.913
			c0.968-0.446,2.035-0.669,3.205-0.669c1.287,0,2.341,0.2,3.156,0.601c0.814,0.398,1.589,0.952,2.327,1.659l3.736-4.195
			c-0.986-1.013-2.251-1.92-3.804-2.719c-1.554-0.8-3.391-1.2-5.511-1.2c-2.025,0-3.938,0.354-5.739,1.061
			c-1.796,0.709-3.363,1.737-4.7,3.09c-1.337,1.351-2.399,3.003-3.183,4.954c-0.783,1.952-1.175,4.174-1.175,6.66
			c0,2.521,0.378,4.743,1.13,6.663s1.792,3.527,3.11,4.816c1.324,1.29,2.868,2.267,4.633,2.927c1.769,0.661,3.664,0.992,5.694,0.992
			c2.12,0,4.057-0.354,5.808-1.06c1.751-0.707,3.165-1.569,4.24-2.582V487.39H572.516z"/>
	</g>
</g>
<path fill="#4CD964" d="M67.383,393.039c3.176,1.79,5.382,3.032,5.382,3.032l50.586-65.4l6.441,3.591l-52.543,87.913
	c0,0-8.018-8.123-16.593-16.815L67.383,393.039z"/>
<linearGradient id="SVGID_1_" gradientUnits="userSpaceOnUse" x1="62.5371" y1="399.0173" x2="82.7444" y2="415.3809">
	<stop  offset="0" style="stop-color:#64F57D"/>
	<stop  offset="0.8" style="stop-color:#4CD964"/>
</linearGradient>
<path fill="url(#SVGID_1_)" d="M77.249,422.168c0,0-8.016-8.124-16.593-16.815l6.729-12.321c3.177,1.79,5.382,3.032,5.382,3.032
	L77.249,422.168z"/>
<linearGradient id="SVGID_2_" gradientUnits="userSpaceOnUse" x1="89.7261" y1="424.6013" x2="108.5436" y2="327.7936">
	<stop  offset="0" style="stop-color:#64F57D"/>
	<stop  offset="0.7" style="stop-color:#4CD964"/>
</linearGradient>
<path fill="url(#SVGID_2_)" d="M77.249,422.176l52.543-87.913l-6.441-3.591l-50.586,65.4L77.249,422.176z"/>
<path fill="#4CD964" d="M78.928,339.985l-45.321,58.742L8.362,384.472l-3.951,3.959l33.211,33.744l47.077-78.965L78.928,339.985z"/>
<linearGradient id="SVGID_3_" gradientUnits="userSpaceOnUse" x1="6" y1="386.4705" x2="42.5608" y2="416.0768">
	<stop  offset="0" style="stop-color:#64F57D"/>
	<stop  offset="0.8" style="stop-color:#4CD964"/>
</linearGradient>
<path fill="url(#SVGID_3_)" d="M37.622,422.176L4.411,388.432l3.951-3.959l25.245,14.255L37.622,422.176z"/>
<linearGradient id="SVGID_4_" gradientUnits="userSpaceOnUse" x1="48.7773" y1="424.3445" x2="65.6758" y2="337.4096">
	<stop  offset="0" style="stop-color:#64F57D"/>
	<stop  offset="0.8" style="stop-color:#4CD964"/>
</linearGradient>
<path fill="url(#SVGID_4_)" d="M37.622,422.176l47.077-78.965l-5.771-3.226l-45.321,58.742L37.622,422.176z"/>
</svg>
